HIERARCHY
ROOT mixamorig:Hips
{
	OFFSET -0.000008 104.274872 1.554316
	CHANNELS 6 Xposition Yposition Zposition Xrotation Yrotation Zrotation
	JOINT mixamorig:Spine
	{
		OFFSET -0.000005 10.181595 0.131519
		CHANNELS 6 Xposition Yposition Zposition Xrotation Yrotation Zrotation
		JOINT mixamorig:Spine1
		{
			OFFSET -0.000000 9.893959 -1.470707
			CHANNELS 6 Xposition Yposition Zposition Xrotation Yrotation Zrotation
			JOINT mixamorig:Spine2
			{
				OFFSET -0.000000 9.220757 -1.370641
				CHANNELS 6 Xposition Yposition Zposition Xrotation Yrotation Zrotation
				JOINT mixamorig:Neck
				{
					OFFSET 0.000001 16.740417 -2.049036
					CHANNELS 6 Xposition Yposition Zposition Xrotation Yrotation Zrotation
					JOINT mixamorig:Head
					{
						OFFSET 0.000000 9.617874 1.685006
						CHANNELS 6 Xposition Yposition Zposition Xrotation Yrotation Zrotation
						JOINT mixamorig:HeadTop_End
						{
							OFFSET 0.000002 22.037354 7.501101
							CHANNELS 6 Xposition Yposition Zposition Xrotation Yrotation Zrotation
							End Site
							{
								OFFSET 0.000168 2310.654297 -282.823242
							}
						}
					}
				}
				JOINT mixamorig:RightShoulder
				{
					OFFSET -4.569970 11.014908 -2.160885
					CHANNELS 6 Xposition Yposition Zposition Xrotation Yrotation Zrotation
					JOINT mixamorig:RightArm
					{
						OFFSET -10.592851 -0.524811 -2.232101
						CHANNELS 6 Xposition Yposition Zposition Xrotation Yrotation Zrotation
						JOINT mixamorig:RightForeArm
						{
							OFFSET -27.841511 0.000031 -0.000004
							CHANNELS 6 Xposition Yposition Zposition Xrotation Yrotation Zrotation
							JOINT mixamorig:RightHand
							{
								OFFSET -28.328831 -0.000015 0.000015
								CHANNELS 6 Xposition Yposition Zposition Xrotation Yrotation Zrotation
								JOINT mixamorig:RightHandThumb1
								{
									OFFSET -2.464806 -1.573990 2.681852
									CHANNELS 6 Xposition Yposition Zposition Xrotation Yrotation Zrotation
									JOINT mixamorig:RightHandThumb2
									{
										OFFSET -3.215179 -1.872803 1.924282
										CHANNELS 6 Xposition Yposition Zposition Xrotation Yrotation Zrotation
										JOINT mixamorig:RightHandThumb3
										{
											OFFSET -2.654831 -1.527969 1.512609
											CHANNELS 6 Xposition Yposition Zposition Xrotation Yrotation Zrotation
											JOINT mixamorig:RightHandThumb4
											{
												OFFSET -2.018814 -1.152008 1.108052
												CHANNELS 6 Xposition Yposition Zposition Xrotation Yrotation Zrotation
												End Site
												{
													OFFSET -188.809540 -114.533607 132.431396
												}
											}
										}
									}
								}
								JOINT mixamorig:RightHandIndex1
								{
									OFFSET -9.108284 -0.517868 2.259835
									CHANNELS 6 Xposition Yposition Zposition Xrotation Yrotation Zrotation
									JOINT mixamorig:RightHandIndex2
									{
										OFFSET -3.699989 0.000000 0.001215
										CHANNELS 6 Xposition Yposition Zposition Xrotation Yrotation Zrotation
										JOINT mixamorig:RightHandIndex3
										{
											OFFSET -2.850006 0.000031 -0.000522
											CHANNELS 6 Xposition Yposition Zposition Xrotation Yrotation Zrotation
											JOINT mixamorig:RightHandIndex4
											{
												OFFSET -2.772186 -0.000015 -0.000020
												CHANNELS 6 Xposition Yposition Zposition Xrotation Yrotation Zrotation
												End Site
												{
													OFFSET -277.218445 0.000000 -0.050231
												}
											}
										}
									}
								}
								JOINT mixamorig:RightHandMiddle1
								{
									OFFSET -9.532516 -0.000031 -0.000023
									CHANNELS 6 Xposition Yposition Zposition Xrotation Yrotation Zrotation
									JOINT mixamorig:RightHandMiddle2
									{
										OFFSET -3.700005 -0.000015 0.003713
										CHANNELS 6 Xposition Yposition Zposition Xrotation Yrotation Zrotation
										JOINT mixamorig:RightHandMiddle3
										{
											OFFSET -2.949974 0.000015 -0.002054
											CHANNELS 6 Xposition Yposition Zposition Xrotation Yrotation Zrotation
											JOINT mixamorig:RightHandMiddle4
											{
												OFFSET -2.946640 0.000000 -0.000156
												CHANNELS 6 Xposition Yposition Zposition Xrotation Yrotation Zrotation
												End Site
												{
													OFFSET -294.664337 0.000000 -0.113670
												}
											}
										}
									}
								}
								JOINT mixamorig:RightHandRing1
								{
									OFFSET -9.103600 -0.043076 -1.865134
									CHANNELS 6 Xposition Yposition Zposition Xrotation Yrotation Zrotation
									JOINT mixamorig:RightHandRing2
									{
										OFFSET -3.379288 0.000000 -0.001055
										CHANNELS 6 Xposition Yposition Zposition Xrotation Yrotation Zrotation
										JOINT mixamorig:RightHandRing3
										{
											OFFSET -2.889687 -0.000015 0.000379
											CHANNELS 6 Xposition Yposition Zposition Xrotation Yrotation Zrotation
											JOINT mixamorig:RightHandRing4
											{
												OFFSET -2.638809 -0.000015 0.000941
												CHANNELS 6 Xposition Yposition Zposition Xrotation Yrotation Zrotation
												End Site
												{
													OFFSET -263.880371 0.000000 0.516020
												}
											}
										}
									}
								}
								JOINT mixamorig:RightHandPinky1
								{
									OFFSET -8.076683 -0.486710 -3.806280
									CHANNELS 6 Xposition Yposition Zposition Xrotation Yrotation Zrotation
									JOINT mixamorig:RightHandPinky2
									{
										OFFSET -3.600014 -0.000015 -0.003747
										CHANNELS 6 Xposition Yposition Zposition Xrotation Yrotation Zrotation
										JOINT mixamorig:RightHandPinky3
										{
											OFFSET -2.099983 0.000000 -0.005739
											CHANNELS 6 Xposition Yposition Zposition Xrotation Yrotation Zrotation
											JOINT mixamorig:RightHandPinky4
											{
												OFFSET -2.115768 -0.000031 -0.003680
												CHANNELS 6 Xposition Yposition Zposition Xrotation Yrotation Zrotation
												End Site
												{
													OFFSET -211.577087 0.000000 -0.350686
												}
											}
										}
									}
								}
							}
						}
					}
				}
				JOINT mixamorig:LeftShoulder
				{
					OFFSET 4.570447 11.014725 -2.160855
					CHANNELS 6 Xposition Yposition Zposition Xrotation Yrotation Zrotation
					JOINT mixamorig:LeftArm
					{
						OFFSET 10.592371 -0.524597 -2.232119
						CHANNELS 6 Xposition Yposition Zposition Xrotation Yrotation Zrotation
						JOINT mixamorig:LeftForeArm
						{
							OFFSET 27.841532 -0.000031 0.000026
							CHANNELS 6 Xposition Yposition Zposition Xrotation Yrotation Zrotation
							JOINT mixamorig:LeftHand
							{
								OFFSET 28.328846 -0.000061 0.000022
								CHANNELS 6 Xposition Yposition Zposition Xrotation Yrotation Zrotation
								JOINT mixamorig:LeftHandThumb1
								{
									OFFSET 2.466141 -1.576172 2.681732
									CHANNELS 6 Xposition Yposition Zposition Xrotation Yrotation Zrotation
									JOINT mixamorig:LeftHandThumb2
									{
										OFFSET 3.217812 -1.872070 1.916482
										CHANNELS 6 Xposition Yposition Zposition Xrotation Yrotation Zrotation
										JOINT mixamorig:LeftHandThumb3
										{
											OFFSET 2.656029 -1.528778 1.514513
											CHANNELS 6 Xposition Yposition Zposition Xrotation Yrotation Zrotation
											JOINT mixamorig:LeftHandThumb4
											{
												OFFSET 2.020889 -1.154053 1.115139
												CHANNELS 6 Xposition Yposition Zposition Xrotation Yrotation Zrotation
												End Site
												{
													OFFSET 190.885437 -115.081749 130.048782
												}
											}
										}
									}
								}
								JOINT mixamorig:LeftHandIndex1
								{
									OFFSET 9.109314 -0.518021 2.259871
									CHANNELS 6 Xposition Yposition Zposition Xrotation Yrotation Zrotation
									JOINT mixamorig:LeftHandIndex2
									{
										OFFSET 3.699989 0.000000 -0.000322
										CHANNELS 6 Xposition Yposition Zposition Xrotation Yrotation Zrotation
										JOINT mixamorig:LeftHandIndex3
										{
											OFFSET 2.850006 0.000000 0.000352
											CHANNELS 6 Xposition Yposition Zposition Xrotation Yrotation Zrotation
											JOINT mixamorig:LeftHandIndex4
											{
												OFFSET 2.774864 -0.000031 -0.000027
												CHANNELS 6 Xposition Yposition Zposition Xrotation Yrotation Zrotation
												End Site
												{
													OFFSET 277.486267 0.000000 -0.009857
												}
											}
										}
									}
								}
								JOINT mixamorig:LeftHandMiddle1
								{
									OFFSET 9.533394 0.000061 0.000044
									CHANNELS 6 Xposition Yposition Zposition Xrotation Yrotation Zrotation
									JOINT mixamorig:LeftHandMiddle2
									{
										OFFSET 3.699989 -0.000015 -0.000231
										CHANNELS 6 Xposition Yposition Zposition Xrotation Yrotation Zrotation
										JOINT mixamorig:LeftHandMiddle3
										{
											OFFSET 2.949997 -0.000015 -0.000059
											CHANNELS 6 Xposition Yposition Zposition Xrotation Yrotation Zrotation
											JOINT mixamorig:LeftHandMiddle4
											{
												OFFSET 2.952896 0.000031 0.000063
												CHANNELS 6 Xposition Yposition Zposition Xrotation Yrotation Zrotation
												End Site
												{
													OFFSET 295.289337 0.000000 0.022810
												}
											}
										}
									}
								}
								JOINT mixamorig:LeftHandRing1
								{
									OFFSET 9.104523 -0.042999 -1.865074
									CHANNELS 6 Xposition Yposition Zposition Xrotation Yrotation Zrotation
									JOINT mixamorig:LeftHandRing2
									{
										OFFSET 3.150009 -0.000031 0.000043
										CHANNELS 6 Xposition Yposition Zposition Xrotation Yrotation Zrotation
										JOINT mixamorig:LeftHandRing3
										{
											OFFSET 2.949982 -0.000015 0.000040
											CHANNELS 6 Xposition Yposition Zposition Xrotation Yrotation Zrotation
											JOINT mixamorig:LeftHandRing4
											{
												OFFSET 2.644348 0.000000 0.000057
												CHANNELS 6 Xposition Yposition Zposition Xrotation Yrotation Zrotation
												End Site
												{
													OFFSET 264.434631 0.000000 0.012105
												}
											}
										}
									}
								}
								JOINT mixamorig:LeftHandPinky1
								{
									OFFSET 8.077789 -0.486847 -3.806259
									CHANNELS 6 Xposition Yposition Zposition Xrotation Yrotation Zrotation
									JOINT mixamorig:LeftHandPinky2
									{
										OFFSET 3.599953 0.000031 0.014727
										CHANNELS 6 Xposition Yposition Zposition Xrotation Yrotation Zrotation
										JOINT mixamorig:LeftHandPinky3
										{
											OFFSET 2.100021 0.000015 0.007705
											CHANNELS 6 Xposition Yposition Zposition Xrotation Yrotation Zrotation
											JOINT mixamorig:LeftHandPinky4
											{
												OFFSET 2.125504 0.000031 0.007517
												CHANNELS 6 Xposition Yposition Zposition Xrotation Yrotation Zrotation
												End Site
												{
													OFFSET 212.550781 0.000000 0.625752
												}
											}
										}
									}
								}
							}
						}
					}
				}
			}
		}
	}
	JOINT mixamorig:RightUpLeg
	{
		OFFSET -8.207787 -6.751648 -1.599560
		CHANNELS 6 Xposition Yposition Zposition Xrotation Yrotation Zrotation
		JOINT mixamorig:RightLeg
		{
			OFFSET -0.000002 -44.370117 0.345942
			CHANNELS 6 Xposition Yposition Zposition Xrotation Yrotation Zrotation
			JOINT mixamorig:RightFoot
			{
				OFFSET 0.000003 -44.423679 -3.043532
				CHANNELS 6 Xposition Yposition Zposition Xrotation Yrotation Zrotation
				JOINT mixamorig:RightToeBase
				{
					OFFSET -0.000002 -8.728671 10.710558
					CHANNELS 6 Xposition Yposition Zposition Xrotation Yrotation Zrotation
					JOINT mixamorig:RightToe_End
					{
						OFFSET -0.000001 -0.000679 9.278119
						CHANNELS 6 Xposition Yposition Zposition Xrotation Yrotation Zrotation
						End Site
						{
							OFFSET 0.000000 -0.067690 927.812134
						}
					}
				}
			}
		}
	}
	JOINT mixamorig:LeftUpLeg
	{
		OFFSET 8.207793 -6.751686 -1.599556
		CHANNELS 6 Xposition Yposition Zposition Xrotation Yrotation Zrotation
		JOINT mixamorig:LeftLeg
		{
			OFFSET -0.000004 -44.370014 0.346954
			CHANNELS 6 Xposition Yposition Zposition Xrotation Yrotation Zrotation
			JOINT mixamorig:LeftFoot
			{
				OFFSET -0.000001 -44.423672 -3.044401
				CHANNELS 6 Xposition Yposition Zposition Xrotation Yrotation Zrotation
				JOINT mixamorig:LeftToeBase
				{
					OFFSET -0.000002 -8.728669 10.710558
					CHANNELS 6 Xposition Yposition Zposition Xrotation Yrotation Zrotation
					JOINT mixamorig:LeftToe_End
					{
						OFFSET -0.000003 -0.000679 9.278133
						CHANNELS 6 Xposition Yposition Zposition Xrotation Yrotation Zrotation
						End Site
						{
							OFFSET 0.000000 -0.068021 927.813477
						}
					}
				}
			}
		}
	}
}
MOTION
Frames: 3
Frame Time: 0.033333
0.000006 104.270477 1.554256 0.000010 0.000003 -0.000113 -0.000005 10.181587 0.131522 0.000001 -0.000003 0.000084 -0.000000 9.893967 -1.470711 0.000001 0.000000 -0.000000 -0.000000 9.220802 -1.370642 0.000000 -0.000000 -0.000000 0.000001 16.740433 -2.049030 0.000000 -0.000000 -0.000000 0.000000 9.617859 1.685014 0.000000 0.000000 0.000000 0.000002 22.037384 7.501101 0.000000 -0.000000 0.000000 -4.569968 11.014880 -2.160881 0.000008 0.000001 -0.000038 -10.592882 -0.524721 -2.231975 70.684446 16.293319 -11.593144 -27.841534 0.000025 0.000546 -53.208926 126.033437 89.058536 -28.328823 0.000022 0.000027 -0.000322 -0.000044 0.000008 -2.464419 -1.573758 2.682310 -51.103052 -167.288818 -18.697206 -3.215278 -1.872587 1.924646 153.860038 31.528584 3.928731 -2.654958 -1.527856 1.513071 146.251398 27.035738 -37.540847 -2.018822 -1.151998 1.108078 -0.000003 0.000000 -0.000000 -9.108379 -0.517553 2.260149 104.287583 15.385920 -19.777398 -3.700082 0.000324 0.001539 101.330166 13.407731 -16.295757 -2.850086 0.000372 -0.000232 100.526383 10.558701 -12.684294 -2.772162 -0.000002 -0.000018 0.000000 -0.000000 0.000002 -9.532593 0.000259 0.000283 99.787431 16.420149 -19.609878 -3.700072 0.000324 0.004005 100.167265 12.976108 -15.368023 -2.950057 0.000319 -0.001783 101.874901 11.645919 -14.315247 -2.946627 0.000012 -0.000159 -0.000000 -0.000001 0.000001 -9.103705 -0.042761 -1.864827 98.013160 17.467543 -19.997532 -3.379337 0.000322 -0.000778 98.975677 10.171665 -11.913259 -2.889741 0.000354 0.000663 103.913419 7.429724 -9.545040 -2.638813 -0.000014 0.000940 -0.000000 -0.000000 -0.000001 -8.076760 -0.486386 -3.805988 90.763037 19.424786 -19.524577 -3.600040 0.000284 -0.003485 93.265092 9.188590 -9.346063 -2.100004 0.000327 -0.005486 96.268047 4.608643 -4.900771 -2.115756 -0.000052 -0.003687 -0.000004 -0.000002 -0.000005 4.570446 11.014691 -2.160851 -0.000018 0.000010 -0.000021 10.592463 -0.524555 -2.232360 39.711253 -53.573712 20.664389 27.841747 -0.000065 -0.000084 228.752830 -70.721691 245.119042 28.328829 -0.000029 0.000033 0.000019 -0.000087 0.000001 2.466057 -1.576174 2.681872 -0.984969 116.804923 -47.931471 3.217851 -1.872008 1.916552 -114.134114 41.832477 55.215195 2.656084 -1.528739 1.514620 -116.211939 25.173169 48.520697 2.020891 -1.154068 1.115136 0.000001 0.000002 0.000003 9.109180 -0.517688 2.260032 -148.749062 -13.498486 -45.853874 3.699881 0.000306 -0.000135 -144.579709 -13.772623 -41.454631 2.849885 0.000374 0.000536 -143.683029 -11.691121 -34.669750 2.774884 -0.000045 -0.000054 0.000001 -0.000004 0.000001 9.533512 0.000096 0.000072 -15.281580 -160.873153 -77.103827 3.700063 0.000208 -0.000358 101.471865 -14.375154 17.536714 2.950030 0.000163 -0.000212 75.433579 -2.078444 1.609425 2.952853 -0.000046 0.000070 0.000000 0.000001 -0.000001 9.104683 -0.042851 -1.865061 -20.810058 -162.682607 -100.651683 3.150020 0.000235 -0.000147 87.745494 -0.212487 0.205766 2.949951 0.000162 -0.000154 65.705436 10.385373 -6.716420 2.644309 0.000015 0.000060 0.000000 -0.000002 -0.000003 8.077940 -0.486689 -3.806237 -17.928623 -166.895003 -104.493958 3.599935 0.000320 0.014572 104.715351 4.063726 -4.759103 2.099946 0.000184 0.007511 78.059404 13.238939 -10.503632 2.125497 0.000001 0.007521 0.000000 0.000002 -0.000000 -8.207786 -6.751667 -1.599560 -0.077001 -0.000003 0.000080 -0.000002 -44.370110 0.345938 0.153719 -0.000000 -0.000000 0.000000 -44.423679 -3.043532 -0.076700 0.000000 -0.000002 -0.000006 -8.728667 10.710559 -0.000009 -0.000000 -0.000000 -0.000001 -0.000679 9.278123 0.000000 -0.000000 -0.000000 8.207792 -6.751710 -1.599556 -0.074518 -0.000003 0.000081 -0.000002 -44.370014 0.346960 0.148822 0.000002 0.000000 -0.000001 -44.423664 -3.044403 -0.074314 0.000000 -0.000002 -0.000004 -8.728671 10.710558 0.000007 -0.000000 -0.000000 0.000000 -0.000680 9.278137 -0.000000 0.000000 -0.000001 
0.000006 104.270477 1.554256 0.000010 0.000003 -0.000113 -0.000005 10.181587 0.131522 0.000001 -0.000003 0.000084 -0.000000 9.893967 -1.470711 0.000001 0.000000 -0.000000 -0.000000 9.220802 -1.370642 0.000000 -0.000000 -0.000000 0.000001 16.740433 -2.049030 0.000000 -0.000000 -0.000000 0.000000 9.617859 1.685014 0.000000 0.000000 0.000000 0.000002 22.037384 7.501101 0.000000 -0.000000 0.000000 -4.569968 11.014880 -2.160881 0.000008 0.000001 -0.000038 -10.592882 -0.524727 -2.231978 70.517339 18.014267 -12.787934 -27.841526 0.000015 0.000531 -52.956263 128.039751 91.256033 -28.328829 0.000006 0.000019 -0.000320 -0.000045 0.000007 -2.464425 -1.573742 2.682302 -51.280077 -167.589128 -19.232377 -3.215279 -1.872603 1.924637 154.013744 31.480424 3.499750 -2.654963 -1.527878 1.513078 146.402359 26.996468 -37.637535 -2.018830 -1.152012 1.108064 -0.000002 0.000002 0.000003 -9.108378 -0.517571 2.260160 104.165398 15.360332 -19.702299 -3.700076 0.000319 0.001542 101.116996 13.346588 -16.161066 -2.850085 0.000376 -0.000220 100.251632 10.518220 -12.574817 -2.772190 -0.000018 -0.000020 0.000000 0.000001 -0.000001 -9.532601 0.000261 0.000274 99.729402 16.271800 -19.415390 -3.700082 0.000331 0.003998 100.135546 12.899732 -15.268828 -2.950067 0.000344 -0.001776 101.854240 11.615935 -14.273299 -2.946625 0.000014 -0.000156 0.000001 -0.000000 0.000000 -9.103710 -0.042769 -1.864851 98.084139 17.224627 -19.744374 -3.379318 0.000327 -0.000775 98.966115 9.952028 -11.654926 -2.889747 0.000365 0.000672 103.870525 7.359123 -9.447746 -2.638800 -0.000006 0.000946 0.000000 -0.000002 -0.000001 -8.076768 -0.486395 -3.806013 90.729125 19.199445 -19.285473 -3.600031 0.000286 -0.003503 93.290159 8.841176 -8.984106 -2.100014 0.000327 -0.005464 96.189807 4.421337 -4.686083 -2.115762 -0.000027 -0.003677 0.000002 -0.000000 -0.000002 4.570446 11.014691 -2.160851 -0.000018 0.000010 -0.000021 10.592461 -0.524558 -2.232354 40.266284 -51.837461 20.203906 27.841736 -0.000056 -0.000083 229.092249 -70.411020 245.828398 28.328840 -0.000013 0.000037 0.000020 -0.000090 -0.000000 2.466101 -1.576190 2.681874 44.646136 112.751984 -93.825066 3.217799 -1.872014 1.916530 -105.303595 49.178738 52.234924 2.656061 -1.528761 1.514611 -106.627258 34.323507 47.169331 2.020884 -1.154053 1.115157 0.000002 0.000004 0.000002 9.109077 -0.517780 2.260026 -156.423531 -19.928815 -80.180677 3.699720 0.000168 -0.000175 -162.429357 -21.734768 -102.319984 2.849720 0.000214 0.000492 -165.955715 -17.399530 -102.333862 2.774872 -0.000031 -0.000033 -0.000002 -0.000002 -0.000000 9.533363 -0.000005 0.000115 -5.380882 -159.090050 -28.620096 3.700088 0.000241 -0.000351 112.052771 -15.955807 23.494082 2.950017 0.000198 -0.000245 89.622409 -4.106322 4.081980 2.952883 -0.000016 0.000062 -0.000003 0.000000 -0.000001 9.104604 -0.042993 -1.865025 -10.150259 -160.788131 -55.365326 3.150008 0.000288 -0.000136 104.776673 -2.426667 3.151515 2.949965 0.000206 -0.000158 82.744279 9.379782 -8.264362 2.644328 0.000016 0.000050 -0.000001 -0.000001 -0.000001 8.077806 -0.486888 -3.806195 -6.467986 -165.067326 -42.405161 3.599969 0.000354 0.014587 124.832581 0.027134 0.761399 2.099950 0.000284 0.007518 98.484634 10.275120 -11.532093 2.125521 -0.000017 0.007493 -0.000001 -0.000002 0.000005 -8.207786 -6.751667 -1.599560 -0.077001 -0.000003 0.000080 -0.000002 -44.370110 0.345938 0.153719 -0.000000 -0.000000 0.000000 -44.423679 -3.043532 -0.076700 0.000000 -0.000002 -0.000006 -8.728667 10.710559 -0.000009 -0.000000 -0.000000 -0.000001 -0.000679 9.278123 0.000000 -0.000000 -0.000000 8.207792 -6.751710 -1.599556 -0.074518 -0.000003 0.000081 -0.000002 -44.370014 0.346960 0.148822 0.000002 0.000000 -0.000001 -44.423664 -3.044403 -0.074314 0.000000 -0.000002 -0.000004 -8.728671 10.710558 0.000007 -0.000000 -0.000000 0.000000 -0.000680 9.278137 -0.000000 0.000000 -0.000001 
0.000006 104.270477 1.554256 0.000010 0.000003 -0.000113 -0.000005 10.181587 0.131522 0.000001 -0.000003 0.000084 -0.000000 9.893967 -1.470711 0.000001 0.000000 -0.000000 -0.000000 9.220802 -1.370642 0.000000 -0.000000 -0.000000 0.000001 16.740433 -2.049030 0.000000 -0.000000 -0.000000 0.000000 9.617859 1.685014 0.000000 0.000000 0.000000 0.000002 22.037384 7.501101 0.000000 -0.000000 0.000000 -4.569968 11.014880 -2.160881 0.000008 0.000001 -0.000038 -10.592880 -0.524710 -2.231980 70.305712 15.702649 -11.092634 -27.841520 0.000022 0.000551 -52.833456 126.006349 88.555137 -28.328827 -0.000007 0.000024 -0.000325 -0.000045 0.000006 -2.464440 -1.573736 2.682296 -51.493766 -168.022285 -19.898033 -3.215294 -1.872571 1.924652 154.101581 31.386249 2.838042 -2.654940 -1.527888 1.513088 146.299879 27.011083 -37.706182 -2.018830 -1.152007 1.108064 -0.000004 0.000002 0.000003 -9.108384 -0.517550 2.260143 104.164688 15.327085 -19.659846 -3.700081 0.000319 0.001536 101.067306 13.340195 -16.139274 -2.850080 0.000370 -0.000230 100.244535 10.512368 -12.566265 -2.772171 0.000004 -0.000020 -0.000000 0.000001 -0.000003 -9.532604 0.000272 0.000273 99.661244 16.174518 -19.277936 -3.700077 0.000329 0.004015 100.117896 12.838658 -15.191632 -2.950060 0.000348 -0.001744 101.849076 11.593006 -14.243910 -2.946628 0.000014 -0.000155 -0.000000 -0.000000 -0.000002 -9.103704 -0.042772 -1.864851 97.946689 17.052341 -19.501005 -3.379333 0.000339 -0.000764 99.054245 9.842973 -11.545477 -2.889748 0.000347 0.000668 103.967705 7.337062 -9.436034 -2.638823 -0.000005 0.000940 -0.000001 0.000000 -0.000001 -8.076759 -0.486407 -3.806004 90.687174 18.958647 -19.028391 -3.600040 0.000282 -0.003502 93.410316 8.567984 -8.714494 -2.100005 0.000329 -0.005471 96.076064 4.255044 -4.492474 -2.115774 -0.000028 -0.003679 0.000000 -0.000001 -0.000001 4.570446 11.014691 -2.160851 -0.000018 0.000010 -0.000021 10.592469 -0.524557 -2.232359 41.244702 -55.371309 22.339131 27.841740 -0.000063 -0.000086 228.537515 -70.603276 244.972740 28.328842 -0.000012 0.000027 0.000020 -0.000088 -0.000001 2.466106 -1.576171 2.681868 45.881003 117.247232 -97.688958 3.217789 -1.872029 1.916535 -97.058293 51.338249 47.053279 2.656044 -1.528766 1.514616 -91.931464 33.884910 37.889658 2.020895 -1.154052 1.115147 0.000003 0.000006 0.000001 9.109222 -0.517750 2.260103 -125.662667 -17.857302 -34.029403 3.699801 0.000302 -0.000142 -146.083458 -18.578246 -56.430541 2.849820 0.000325 0.000534 -152.057605 -15.669449 -57.889972 2.774877 -0.000031 -0.000039 -0.000000 0.000001 0.000001 9.533167 0.000262 0.000219 31.235725 -150.101207 92.627030 3.700114 0.000183 -0.000315 121.525389 -23.110184 40.126163 2.950040 0.000247 -0.000205 101.181917 -5.283338 6.431039 2.952862 -0.000015 0.000065 -0.000001 -0.000002 0.000001 9.104301 -0.042894 -1.864942 18.713578 -150.492686 64.069674 3.150022 0.000279 -0.000098 109.747616 -7.169011 10.179480 2.949949 0.000252 -0.000141 89.753822 9.211499 -9.170971 2.644320 0.000015 0.000057 -0.000001 0.000002 -0.000001 8.077523 -0.486590 -3.806095 24.351641 -160.830833 103.699900 3.599941 0.000388 0.014624 135.383201 1.174455 -1.854389 2.099942 0.000306 0.007528 102.940445 11.769738 -14.359687 2.125507 0.000001 0.007516 0.000000 -0.000001 -0.000005 -8.207786 -6.751667 -1.599560 -0.077001 -0.000003 0.000080 -0.000002 -44.370110 0.345938 0.153719 -0.000000 -0.000000 0.000000 -44.423679 -3.043532 -0.076700 0.000000 -0.000002 -0.000006 -8.728667 10.710559 -0.000009 -0.000000 -0.000000 -0.000001 -0.000679 9.278123 0.000000 -0.000000 -0.000000 8.207792 -6.751710 -1.599556 -0.074518 -0.000003 0.000081 -0.000002 -44.370014 0.346960 0.148822 0.000002 0.000000 -0.000001 -44.423664 -3.044403 -0.074314 0.000000 -0.000002 -0.000004 -8.728671 10.710558 0.000007 -0.000000 -0.000000 0.000000 -0.000680 9.278137 -0.000000 0.000000 -0.000001 
